<svg xmlns="http://www.w3.org/2000/svg" viewBox="0 0 19.6 19.6"><defs><style>.cls-1{fill:none;stroke:#fff;stroke-linejoin:round;stroke-width:0.99px;}</style></defs><title>address</title><g id="Layer_2" data-name="Layer 2"><g id="Layer_1-2" data-name="Layer 1"><path class="cls-1" d="M.49,19.1l4.6-7.4A15,15,0,0,0,6.4,13.2a13,13,0,0,0,1.5,1.31Z"/><path class="cls-1" d="M18.68,7a2.17,2.17,0,0,1-2.24.22L14,9.69c1.24,2,1.53,4,.56,4.93A2.18,2.18,0,0,1,13,15.2a7.59,7.59,0,0,1-4.24-1.76l-.1-.08-.32-.25L8.17,13l-.3-.27-.12-.1c-.14-.13-.27-.25-.4-.39a6.33,6.33,0,0,1-.44-.46,3.47,3.47,0,0,1-.25-.29,1.07,1.07,0,0,1-.14-.16L6.21,11l0,0C4.42,8.59,3.86,6.17,5,5.05a2.21,2.21,0,0,1,1.6-.57A6.72,6.72,0,0,1,9.91,5.62l2.46-2.46A2.15,2.15,0,0,1,12.59.92c.92-.92,3-.3,4.71,1.38S19.6,6.09,18.68,7Z"/></g></g></svg>