<svg xmlns="http://www.w3.org/2000/svg" viewBox="0 0 19.39 17.37"><defs><style>.cls-1{fill:none;stroke:#fff;stroke-linejoin:round;stroke-width:1.21px;}</style></defs><title>email</title><g id="Layer_2" data-name="Layer 2"><g id="Layer_1-2" data-name="Layer 1"><polygon class="cls-1" points="9.69 0.6 18.07 5.68 1.27 5.72 9.69 0.6"/><path class="cls-1" d="M18.78,6.56v8.58a1.63,1.63,0,0,1-1.63,1.63H2.23A1.63,1.63,0,0,1,.6,15.14V6.56a2.4,2.4,0,0,1,0-.28l.2.14L9.2,11.63h0l0,0a.71.71,0,0,0,.18.08h0a.71.71,0,0,0,.21,0l.21,0h0a.71.71,0,0,0,.18-.08l0,0h0l8.35-5.2.23-.15A2.46,2.46,0,0,1,18.78,6.56Z"/></g></g></svg>