<svg xmlns="http://www.w3.org/2000/svg" viewBox="0 0 15.28 22.21"><defs><style>.cls-1{fill:none;stroke:#fff;stroke-linejoin:round;stroke-width:0.51px;}</style></defs><title>map</title><g id="Layer_2" data-name="Layer 2"><g id="Layer_1-2" data-name="Layer 1"><path class="cls-1" d="M7.51.25H7.6a6.22,6.22,0,0,1,6.08,6.18c0,4.11-4.38,8.26-6.13,9.75l-.38-.34h0c-1.92-1.72-5.73-5.58-5.73-9.41A6.22,6.22,0,0,1,7.51.25Z"/><path class="cls-1" d="M10.82,5.81a3.21,3.21,0,1,1-3.21-3.2,3.21,3.21,0,0,1,3.21,3.2Z"/><path class="cls-1" d="M7.64,22C4,22,.25,20.91.25,18.9c0-1.42,1.83-2.35,4.19-2.79.46.46.89.86,1.27,1.2-2.57.29-4.08,1.1-4.08,1.59s2.28,1.68,6,1.68,6-1.09,6-1.68-1.57-1.33-4.23-1.6c.38-.34.81-.75,1.27-1.22,2.43.43,4.34,1.38,4.34,2.82,0,2-3.72,3.06-7.39,3.06Z"/></g></g></svg>