<svg xmlns="http://www.w3.org/2000/svg" viewBox="0 0 18.98 19.02"><defs><style>.cls-1{fill:none;stroke:#fff;stroke-miterlimit:10;stroke-width:1.19px;}</style></defs><title>Phone</title><g id="Layer_2" data-name="Layer 2"><g id="Layer_1-2" data-name="Layer 1"><path class="cls-1" d="M15.26,12s-.7-.85-1.48-.27c-.58.44-1.63,1.4-1.88,1.64a20.79,20.79,0,0,1-2.77-1.78A14.78,14.78,0,0,1,6,7.87l-.4-.76C5.78,7,6.85,5.82,7.31,5.2a1.11,1.11,0,0,0-.26-1.48S4.68,1.35,4.14.88A1.16,1.16,0,0,0,3,.67C1.84,1.4.67,2,.6,5.11c0,2.87,2.17,5.83,4.53,8.13,2.36,2.59,5.61,5.18,8.74,5.18s3.71-1.25,4.44-2.38a1.16,1.16,0,0,0-.21-1.16c-.47-.55-2.84-2.91-2.84-2.91Z"/></g></g></svg>