<svg xmlns="http://www.w3.org/2000/svg" viewBox="0 0 117.31 110.96"><defs><style>.cls-1{fill:#fff;}</style></defs><title>Asset 1</title><g id="Layer_2" data-name="Layer 2"><g id="Layer_1-2" data-name="Layer 1"><path d="M5.1,98.46H0V111H5.05a6.26,6.26,0,1,0,0-12.5Zm0,11.14H1.44V99.83H5.06a4.89,4.89,0,1,1,.06,9.77Zm40.18-1.09L37.73,98.46h-1.5V111h1.44v-10l7.57,10h1.48V98.46H45.3Zm16-10.05H59.79L54.13,111h1.53l1.41-3.16H64L65.36,111h1.57Zm-3.6,8,2.81-6.34,2.85,6.34ZM23.31,105l-4.1-6.52H17.72l4.88,8.27V111H24v-4.29l4.79-8.21H27.34Z"/><path class="cls-1" d="M52.8,69.08h0Zm27.92,38.38-4.62-9H74.32V111h1.37V100.65l4.58,9h.86l4.6-9,0,10.31h1.33V98.46H85.31Zm31.21-3.57,5-5.43h-1.71l-6.78,7.2v-7.2H107V111h1.45v-3.27l2.45-2.66,4.65,5.93h1.77ZM96.33,111h1.44V98.46H96.33Z"/><path d="M58.51,85.4h0ZM51.3,87.93l7.25,5.26V85.43L51.3,80.17Zm-15.2-11h0m-.2-.14h0M23.34,38.1,38.18,48.86A21.24,21.24,0,0,1,47.38,66c0,3.18-1.22,6.1-2.91,7-1.5.76-3.47-.28-4.86-1.29L23.34,59.89v7.77l12.55,9.1h0l.21.14L36,76.83a12.54,12.54,0,0,0,7.35,2.69,8.76,8.76,0,0,0,4-.94,7.42,7.42,0,0,0,1-.58c3.31-2.24,5.39-6.79,5.39-12a26.22,26.22,0,0,0-.82-6.51,28.18,28.18,0,0,0-11-15.73h0L23.34,30.32Zm0-12.56h0l5.36,3.89h0L58.56,51.08V43.31L34.06,25.54h0l-5.36-3.89v0l-5.36-3.89ZM53.26,3.84,34.06,17.77l5.35,3.89L58.55,7.77V0Z"/><path class="cls-1" d="M58.71,85.4h0Zm7.23-5.18-7.19,5.21v7.76L65.94,88l.08-.06V80.16ZM58.75,43.3v7.78l28.9-21V72.24L94,67.65V17.76Zm0-35.62v.09L77.89,21.65l5.36-3.88L64.05,3.84,58.75,0Z"/></g></g></svg>